<svg width="49" height="48" viewBox="0 0 49 48" fill="none" xmlns="http://www.w3.org/2000/svg">
<path d="M15.8614 7.12312C15.4738 7.12312 15.3011 7.3656 15.3011 7.68783V13.3095C15.3011 13.5615 15.3931 13.6741 15.5494 13.7786L21.1766 17.5415L22.6114 18.5017C17.2037 19.3174 13.05 23.9912 13.05 29.6242C13.05 35.8308 18.0923 40.8731 24.2989 40.8731C30.5054 40.8731 35.5511 35.8308 35.5511 29.6242C35.5511 23.981 31.3793 19.3016 25.9567 18.4984L27.4256 17.5206L33.0473 13.7786C33.2218 13.6625 33.3011 13.46 33.3011 13.3095V7.68783C33.3011 7.27401 33.1696 7.12305 32.7364 7.12305C27.1114 7.12303 21.4864 7.12307 15.8614 7.12312ZM22.0478 8.24813H26.5489V16.7527L24.278 18.2633L22.0478 16.7713V8.24813ZM24.2989 21.1867C28.9521 21.1867 32.7364 24.971 32.7364 29.6242C32.7364 34.2775 28.9521 38.0617 24.2989 38.0617C19.6456 38.0617 15.8614 34.2775 15.8614 29.6242C15.8614 24.971 19.6456 21.1867 24.2989 21.1867ZM24.2989 22.3118C20.2536 22.3118 16.9864 25.579 16.9864 29.6242C16.9864 33.6695 20.2536 36.9367 24.2989 36.9367C28.3441 36.9367 31.6103 33.6695 31.6103 29.6242C31.6103 25.579 28.3441 22.3118 24.2989 22.3118Z" fill="url(#paint0_linear_499_6953)"/>
<defs>
<linearGradient id="paint0_linear_499_6953" x1="13.2095" y1="24.176" x2="35.746" y2="24.176" gradientUnits="userSpaceOnUse">
<stop stop-color="#FEAA2B"/>
<stop offset="0.50034" stop-color="#FFEE58"/>
<stop offset="1" stop-color="#FEAA2B"/>
</linearGradient>
</defs>
</svg>
