<svg width="32" height="32" viewBox="0 0 32 32" fill="none" xmlns="http://www.w3.org/2000/svg">
<path d="M25.5175 6.58375V5.395C25.5175 5.18875 25.3525 5.02 25.1425 5.02H21.0738L19.9413 5.0425C19.7425 5.04625 19.5813 5.2 19.5738 5.39875L19.5175 6.5275C19.5025 6.8125 19.4238 6.81625 19.3825 6.82L19.3338 6.82375C19.1838 6.82375 19.06 6.7525 18.5575 6.3775C17.8675 5.86 16.9188 5.15125 15.2575 4.83625C14.38 4.67125 13.5138 4.7425 12.7225 5.035C12.6663 4.90375 12.5313 4.81 12.3813 4.81H6.85751C6.64751 4.81 6.48251 4.97875 6.48251 5.185V14.935C6.48251 15.1413 6.64751 15.31 6.85751 15.31H12.3813C12.5875 15.31 12.7563 15.1413 12.7563 14.935V12.2913C12.9663 12.1638 13.0938 12.16 13.3225 12.3063C13.705 12.55 14.095 12.7525 14.4888 12.9063C9.80876 19.0188 9.57626 25.3675 9.56876 25.6413L9.53126 26.8638C9.53126 26.965 9.56876 27.0625 9.64001 27.1375C9.71126 27.2088 9.80501 27.25 9.90626 27.25H19.9563C20.0613 27.25 20.1625 27.205 20.2338 27.1263C20.305 27.0475 20.3388 26.9425 20.3275 26.8375L20.1925 25.525C19.7538 21.3475 20.8563 16.3075 22.8063 13.5363C25.4875 9.73 25.5175 6.71125 25.5175 6.58375ZM18.2238 25.3113H11.5338C11.6838 23.6575 12.6325 17.02 18.2688 11.575C18.4113 11.4363 18.4225 11.2113 18.295 11.0613C18.1675 10.9113 17.9425 10.885 17.785 11.0013C17.77 11.0125 16.42 11.98 14.365 10.6713C12.79 9.67 11.4025 10.705 10.8888 11.395C10.8438 11.4588 10.8175 11.5375 10.8175 11.6163V13.3713H8.42126V6.74875H10.8175V8.41375C10.8175 8.58625 10.9375 8.73625 11.1063 8.7775C11.275 8.815 11.4513 8.7325 11.5263 8.57875C11.575 8.485 12.67 6.32125 14.8975 6.74125C16.12 6.97375 16.7988 7.48 17.3988 7.93C18.0025 8.38 18.58 8.8075 19.4838 8.755C20.7775 8.68375 21.2838 7.69375 21.415 6.95875H23.5488C23.4475 7.78 23.02 9.86875 21.22 12.4225C19.0563 15.4938 17.8488 20.74 18.2238 25.3113Z" fill="white"/>
</svg>
