<svg width="32" height="32" viewBox="0 0 32 32" fill="none" xmlns="http://www.w3.org/2000/svg">
<path d="M21.2012 13.2925C21.2125 13.3038 21.2162 13.3188 21.2125 13.33L20.9987 14.8825C20.9612 15.1713 21.085 15.46 21.3212 15.6363C21.5612 15.8088 21.8725 15.835 22.1387 15.7075L23.545 15.025C23.56 15.0175 23.575 15.0175 23.5862 15.025L24.9925 15.7075C25.105 15.76 25.225 15.7863 25.3412 15.7863C25.5062 15.7863 25.6712 15.7338 25.81 15.6363C26.05 15.46 26.17 15.1713 26.1325 14.8825L25.9187 13.33C25.915 13.315 25.9225 13.3038 25.93 13.2925L27.0137 12.1638C27.22 11.95 27.2875 11.6463 27.1975 11.365C27.1075 11.0838 26.8712 10.8775 26.5787 10.8288L25.0412 10.5513C25.0262 10.5475 25.015 10.54 25.0075 10.525L24.2687 9.14876C24.13 8.89001 23.86 8.72876 23.5675 8.72876H23.5637C23.2712 8.72876 23.0012 8.89001 22.8625 9.14876L22.1237 10.525C22.12 10.54 22.105 10.5475 22.09 10.5513L20.5525 10.8288C20.2637 10.8775 20.0237 11.0838 19.9337 11.365C19.8437 11.6463 19.915 11.95 20.1175 12.1638L21.2012 13.2925Z" fill="white"/>
<path d="M13.6337 11.7475C13.645 11.755 13.6487 11.77 13.6487 11.785L13.435 13.3337C13.3937 13.6262 13.5175 13.915 13.7537 14.0875C13.9937 14.26 14.305 14.29 14.5712 14.1625L15.9812 13.48C15.9925 13.4725 16.0075 13.4725 16.0187 13.48L17.4287 14.1625C17.5375 14.215 17.6575 14.2412 17.7775 14.2412C17.9425 14.2412 18.1075 14.1887 18.2462 14.0875C18.4825 13.915 18.6062 13.6262 18.565 13.3337L18.3512 11.785C18.3512 11.77 18.355 11.755 18.3663 11.7475L19.45 10.6187C19.6525 10.405 19.7237 10.1012 19.63 9.81999C19.54 9.53874 19.3037 9.33249 19.015 9.27999L17.4737 9.00624C17.4625 9.00249 17.4475 8.99499 17.44 8.97999L16.705 7.60374C16.5625 7.34124 16.2962 7.17999 16 7.17999C15.7037 7.17999 15.4375 7.34124 15.295 7.60374L14.56 8.97999C14.5525 8.99499 14.5375 9.00249 14.5262 9.00624L12.985 9.27999C12.6962 9.33249 12.46 9.53874 12.37 9.81999C12.2762 10.1012 12.3475 10.405 12.55 10.6187L13.6337 11.7475Z" fill="white"/>
<path d="M6.07 13.2925C6.0775 13.3038 6.085 13.315 6.08125 13.33L5.8675 14.8788C5.83 15.1713 5.95 15.46 6.19 15.6363C6.32875 15.7338 6.49375 15.7863 6.65875 15.7863C6.775 15.7863 6.895 15.76 7.00375 15.7075L8.41375 15.025C8.425 15.0175 8.44 15.0175 8.455 15.025L9.86125 15.7075C10.1275 15.835 10.4387 15.8088 10.6787 15.6363C10.915 15.46 11.0387 15.1713 11.0012 14.8825L10.7875 13.33C10.7837 13.3188 10.7875 13.3038 10.7987 13.2925L11.8825 12.1638C12.085 11.95 12.1562 11.6463 12.0662 11.365C11.9762 11.0838 11.7362 10.8775 11.4475 10.8288L9.90625 10.5513C9.895 10.5475 9.88 10.54 9.87625 10.525L9.1375 9.14876C8.99875 8.89001 8.72875 8.72876 8.43625 8.72876H8.4325C8.14 8.72876 7.87 8.89001 7.73125 9.14876L6.9925 10.5288C6.985 10.54 6.97375 10.5475 6.95875 10.5513L5.42125 10.8288C5.12875 10.8775 4.8925 11.0838 4.8025 11.365C4.7125 11.6463 4.78 11.95 4.98625 12.1638L6.07 13.2925Z" fill="white"/>
<path d="M11.2855 17.5123C10.8261 17.5123 10.4241 17.8067 10.285 18.2455L9.7285 20.0068L9.27438 18.2927C9.202 18.0205 9.028 17.7932 8.78388 17.6522C8.54163 17.512 8.25925 17.4748 7.99113 17.5472C7.432 17.6957 7.09713 18.271 7.24525 18.8301L8.62488 24.0381C8.74375 24.4866 9.15063 24.8072 9.61 24.8185C10.1039 24.838 10.4995 24.5286 10.6398 24.0857L11.2859 22.0431L11.9316 24.0861C12.0678 24.5151 12.4844 24.8188 12.9265 24.8188C12.9366 24.8188 12.9471 24.8188 12.9569 24.8185C13.42 24.8076 13.8269 24.487 13.9469 24.0381L15.3265 18.8301C15.4746 18.2706 15.1398 17.6953 14.5818 17.5476C14.3114 17.4748 14.0283 17.5127 13.7856 17.6533C13.543 17.7943 13.3694 18.0216 13.2978 18.2931L12.8436 20.0072L12.2868 18.2451C12.1476 17.8067 11.7456 17.5123 11.2863 17.5123H11.2855ZM12.5174 21.4648C12.5676 21.6242 12.7221 21.7348 12.8838 21.7266C13.0506 21.7228 13.1946 21.6092 13.2374 21.4476L14.0223 18.4843C14.0429 18.4067 14.0924 18.3422 14.1614 18.3017C14.2308 18.2623 14.3103 18.2515 14.3879 18.2721C14.5476 18.3145 14.6429 18.4783 14.6005 18.6381L13.2213 23.8453C13.1868 23.9736 13.0709 24.0655 12.9355 24.0688C12.8106 24.0666 12.6839 23.9807 12.6456 23.8596L11.6425 20.686C11.5934 20.53 11.4486 20.4238 11.2851 20.4238C11.1216 20.4238 10.9769 20.53 10.9278 20.686L9.92425 23.8592C9.8845 23.9845 9.76975 24.0688 9.6385 24.0688V24.4438L9.63138 24.0688C9.499 24.0655 9.38313 23.974 9.349 23.8461L7.96938 18.6381C7.92738 18.4787 8.02263 18.3145 8.18388 18.2713C8.209 18.2646 8.23488 18.2612 8.26 18.2612C8.31138 18.2612 8.362 18.2747 8.40813 18.301C8.47825 18.3415 8.52775 18.4067 8.54838 18.4843L9.33325 21.4468C9.376 21.6081 9.52 21.7217 9.68688 21.7258C9.85375 21.7348 10.003 21.6231 10.0533 21.4641L10.999 18.4716C11.0388 18.3463 11.1535 18.262 11.2848 18.262C11.416 18.262 11.5304 18.3463 11.5705 18.4712L12.5166 21.4645L12.5174 21.4648Z" fill="white"/>
<path d="M17.14 24.8189C17.7186 24.8189 18.1896 24.3483 18.1896 23.7696V18.5616C18.1896 17.983 17.7186 17.5124 17.14 17.5124C16.5614 17.5124 16.0907 17.983 16.0907 18.5616V23.7696C16.0907 24.3483 16.5614 24.8189 17.14 24.8189ZM16.8407 18.5616C16.8407 18.3966 16.975 18.2624 17.14 18.2624C17.305 18.2624 17.4396 18.3966 17.4396 18.5616V23.7696C17.4396 23.9346 17.3054 24.0689 17.14 24.0689C16.9746 24.0689 16.8407 23.9346 16.8407 23.7696V18.5616Z" fill="white"/>
<path d="M21.364 23.7696V22.0664L22.864 24.3471C23.0594 24.6426 23.3871 24.8193 23.7408 24.8193C23.842 24.8193 23.9429 24.8043 24.0419 24.775C24.4893 24.6408 24.79 24.2369 24.79 23.7696V18.5616C24.79 17.983 24.3194 17.5124 23.7408 17.5124C23.1621 17.5124 22.6911 17.983 22.6911 18.5616V20.2649L21.1911 17.9845C20.9335 17.5941 20.4599 17.422 20.0136 17.5563C19.5663 17.6901 19.2651 18.0944 19.2651 18.5616V23.7696C19.2651 24.3483 19.7358 24.8189 20.3144 24.8189C20.893 24.8189 21.364 24.3483 21.364 23.7696ZM20.0151 23.7696V18.5616C20.0151 18.4285 20.101 18.313 20.2293 18.2748C20.3556 18.2369 20.491 18.2856 20.5649 18.3974L22.753 21.7236C22.8438 21.862 23.0155 21.9243 23.1738 21.8766C23.3324 21.829 23.4411 21.6831 23.4411 21.5174V18.5616C23.4411 18.3966 23.5754 18.2624 23.7408 18.2624C23.9061 18.2624 24.04 18.3966 24.04 18.5616V23.7696C24.04 23.9009 23.9523 24.0186 23.8274 24.0561C23.6976 24.0944 23.5619 24.0423 23.491 23.9343L21.3029 20.6076C21.2324 20.5 21.1131 20.4385 20.9894 20.4385C20.9534 20.4385 20.9174 20.4438 20.8818 20.4543C20.7231 20.5019 20.6144 20.6478 20.6144 20.8135V23.7693C20.6144 23.9343 20.4801 24.0685 20.3148 24.0685C20.1494 24.0685 20.0155 23.9343 20.0155 23.7693L20.0151 23.7696Z" fill="white"/>
</svg>
