<svg width="32" height="32" viewBox="0 0 32 32" fill="none" xmlns="http://www.w3.org/2000/svg">
<path d="M13.1466 11.1835C13.354 11.1835 13.5216 11.0155 13.5216 10.8085V9.84286C13.5216 9.63587 13.354 9.46786 13.1466 9.46786C12.9393 9.46786 12.7716 9.63587 12.7716 9.84286V10.8085C12.7716 11.0155 12.9393 11.1835 13.1466 11.1835Z" fill="white"/>
<path d="M18.4784 17.8472V18.8129C18.4784 19.0199 18.646 19.1879 18.8534 19.1879C19.0607 19.1879 19.2284 19.0199 19.2284 18.8129V17.8472C19.2284 17.6402 19.0607 17.4722 18.8534 17.4722C18.646 17.4722 18.4784 17.6402 18.4784 17.8472Z" fill="white"/>
<path d="M13.3525 12.8875C13.3188 12.9625 13.2925 13.0375 13.27 13.1163C13.2475 13.1875 13.2325 13.2588 13.2213 13.33C13.2175 13.36 13.21 13.3863 13.21 13.4163C13.2063 13.4463 13.2025 13.4763 13.2025 13.5063C13.1988 13.525 13.1988 13.54 13.1988 13.5588C13.1988 13.5663 13.195 13.5738 13.195 13.5813C13.195 13.6 13.1913 13.6188 13.1913 13.6375C13.1913 13.6488 13.195 13.66 13.195 13.6713C13.195 13.6825 13.1988 13.6938 13.1988 13.705C13.2025 13.795 13.21 13.885 13.225 13.975V13.9825C13.27 14.2075 13.3525 14.4213 13.48 14.6163V14.62C13.5438 14.7175 13.615 14.8075 13.6975 14.8938L13.705 14.9013L15.7338 16.93C15.8088 17.005 15.9025 17.0388 16 17.0388C16.0938 17.0388 16.1913 17.005 16.2663 16.93L18.3025 14.8938C18.5538 14.635 18.7113 14.3163 18.775 13.9825C18.7863 13.9338 18.7938 13.885 18.7975 13.8363C18.8163 13.6563 18.8088 13.4688 18.775 13.2888C18.7638 13.2325 18.7525 13.1763 18.7338 13.12C18.715 13.0638 18.6963 13.0075 18.6775 12.955C18.655 12.8988 18.6288 12.8463 18.6025 12.7938C18.52 12.6363 18.4113 12.4863 18.28 12.355C17.665 11.74 16.7013 11.6613 16 12.1225C15.2988 11.6613 14.335 11.74 13.72 12.355C13.6225 12.4525 13.54 12.5575 13.4688 12.67C13.4275 12.7375 13.3863 12.8125 13.3525 12.8875Z" fill="white"/>
<path d="M4.76877 14.11C4.72002 14.3612 4.76877 14.62 4.91502 14.8337L10.6338 23.3312C10.7763 23.545 10.9938 23.6912 11.2488 23.74C11.3125 23.7512 11.3725 23.7587 11.4363 23.7587C11.6275 23.7587 11.8113 23.7025 11.9725 23.5937L15.9963 20.8825L20.0275 23.59C20.1888 23.7025 20.3725 23.7587 20.5638 23.7587C20.6275 23.7587 20.6875 23.7512 20.7513 23.74C21.0063 23.6912 21.2238 23.545 21.3663 23.3312L27.085 14.8337C27.2313 14.62 27.28 14.3612 27.2313 14.11C27.1825 13.855 27.0363 13.6375 26.8225 13.495L24.1038 11.665L24.22 11.155C24.3363 10.6337 24.01 10.1162 23.4925 9.99999L20.3313 9.27249V9.20874C20.3313 8.67624 19.8963 8.24124 19.3638 8.24124H12.6363C12.1038 8.24124 11.6688 8.67624 11.6688 9.20874V9.27249L8.50752 9.99999C7.99002 10.1162 7.66377 10.6337 7.78002 11.155L7.89627 11.665L5.17752 13.495C4.96377 13.6375 4.81752 13.855 4.76877 14.11ZM21.9325 21.1375L23.9238 12.4487L26.4063 14.1175C26.4513 14.1475 26.485 14.1962 26.4963 14.2525C26.5075 14.3087 26.4963 14.3687 26.4625 14.4175L21.9288 21.1562C21.9288 21.1487 21.9325 21.145 21.9325 21.1375ZM20.7738 21.8612C20.845 21.88 20.92 21.8875 20.9913 21.8875C21.0438 21.8875 21.1 21.8837 21.1525 21.8725C21.25 21.8537 21.3475 21.8237 21.4338 21.775C21.4788 21.7525 21.52 21.7262 21.5575 21.7L20.7438 22.915C20.7138 22.96 20.665 22.9937 20.6088 23.005C20.5525 23.0162 20.4963 23.0012 20.4475 22.9712L17.7813 21.175L20.7738 21.8612ZM12.4188 9.57249V9.20874C12.4188 9.08874 12.5163 8.99124 12.6363 8.99124H19.3638C19.4838 8.99124 19.5813 9.08874 19.5813 9.20874V19.45C19.5813 19.5662 19.4838 19.6637 19.3638 19.6637H12.6363C12.5163 19.6637 12.4188 19.5662 12.4188 19.45V9.57249ZM10.5663 21.775C10.6525 21.8237 10.75 21.8537 10.8475 21.8725C10.9 21.8837 10.9563 21.8875 11.0088 21.8875C11.08 21.8875 11.155 21.88 11.2263 21.8612L14.2188 21.175L11.5525 22.9712C11.5038 23.0012 11.4475 23.0162 11.3913 23.005C11.335 22.9937 11.2863 22.96 11.2563 22.915L10.4425 21.7C10.48 21.7262 10.5213 21.7525 10.5663 21.775ZM5.59752 14.1175L8.07627 12.4487L10.0675 21.1375C10.0675 21.145 10.0713 21.1487 10.0713 21.1562L5.53752 14.4175C5.50377 14.3687 5.49252 14.3087 5.50377 14.2525C5.51502 14.1962 5.54877 14.1475 5.59752 14.1175Z" fill="white"/>
</svg>
