<svg width="32" height="32" viewBox="0 0 32 32" fill="none" xmlns="http://www.w3.org/2000/svg">
<path d="M6.54625 27.2162C6.595 27.2387 6.65125 27.25 6.70375 27.25C6.79 27.25 6.87625 27.22 6.94375 27.1637L8.29375 26.035C8.68 25.7125 9.17125 25.5325 9.67375 25.5325H15.8875C16.36 25.5325 16.825 25.405 17.23 25.165L22.96 21.79C23.2563 21.6175 23.4625 21.34 23.5413 21.01C23.6238 20.68 23.5713 20.3387 23.3913 20.05C23.0613 19.5137 22.375 19.3037 21.8013 19.57L17.9125 21.355C17.8113 20.77 17.2975 20.32 16.6863 20.32H13.6188C13.4913 20.32 13.3638 20.2675 13.27 20.1775C12.6475 19.555 11.8188 19.21 10.9413 19.21H10.6825C9.64 19.21 8.65375 19.6187 7.915 20.3575L6.4375 21.835C6.37 21.9062 6.32875 22 6.32875 22.1012V26.875C6.32875 27.0212 6.415 27.1525 6.54625 27.2162ZM7.07875 22.255L8.4475 20.8862C9.04375 20.29 9.83875 19.96 10.6825 19.96H10.9413C11.62 19.96 12.2613 20.2262 12.7413 20.7062C12.9738 20.9425 13.2888 21.07 13.6188 21.07H16.6863C16.9563 21.07 17.1775 21.2912 17.1775 21.565C17.1775 21.6362 17.1625 21.7037 17.1363 21.7675C17.1213 21.79 17.1063 21.8125 17.0988 21.8387C17.0088 21.97 16.855 22.06 16.6863 22.06H13.3225C13.1163 22.06 12.9475 22.2287 12.9475 22.435C12.9475 22.6412 13.1163 22.81 13.3225 22.81H16.6863C17.11 22.81 17.4813 22.5962 17.7063 22.2737L22.1163 20.2525C22.345 20.1437 22.6188 20.2262 22.7538 20.4437C22.825 20.56 22.8475 20.6987 22.8138 20.83C22.78 20.9612 22.6975 21.0737 22.5813 21.1412L16.8513 24.52C16.5588 24.6925 16.225 24.7825 15.8875 24.7825H9.67375C8.995 24.7825 8.335 25.0225 7.81375 25.4575L7.07875 26.0725V22.255Z" fill="white"/>
<path d="M11.02 16.78C11.0388 16.7988 11.0575 16.8138 11.0763 16.8288C12.3475 18.0738 14.0834 18.8421 15.9993 18.8425H16.0008H16.0026C17.9181 18.8418 19.6533 18.0734 20.9241 16.8288C20.9266 16.8263 20.9291 16.8238 20.9316 16.8213C20.9406 16.813 20.9481 16.804 20.9568 16.7961C20.9646 16.7894 20.9748 16.7868 20.9823 16.7793C20.9898 16.7718 20.9924 16.7616 20.9991 16.7538C21.0078 16.7448 21.0168 16.7369 21.0254 16.7275C21.0291 16.7275 21.0291 16.7238 21.0329 16.72C22.2779 15.4488 23.0466 13.7125 23.0466 11.7963C23.0466 9.88001 22.2779 8.14376 21.0329 6.87251C21.0291 6.86876 21.0291 6.86501 21.0254 6.86501C21.0168 6.85526 21.0074 6.84739 20.9988 6.83839C20.992 6.83051 20.9898 6.82076 20.9823 6.81364C20.9748 6.80651 20.9654 6.80389 20.9575 6.79714C20.9489 6.78889 20.941 6.77951 20.9316 6.77126C20.9279 6.76751 20.9279 6.76376 20.9241 6.76376C19.6529 5.51876 17.917 4.75039 16.0011 4.75001C14.0853 4.74964 16.0015 4.75001 16.0011 4.75001C14.0699 4.75001 12.3183 5.53001 11.047 6.79001C11.0433 6.79001 11.0395 6.79376 11.0395 6.79751L11.0301 6.80689C11.0271 6.80951 11.0234 6.81064 11.0204 6.81326C11.0163 6.81739 11.0148 6.82339 11.0106 6.82789C10.9968 6.84176 10.984 6.85451 10.972 6.87251C9.72326 8.14001 8.95451 9.88001 8.95451 11.7963C8.95451 13.7125 9.72326 15.4525 10.972 16.72C10.987 16.7425 11.002 16.7613 11.0208 16.78H11.02ZM15.6254 18.0813C14.1704 17.995 12.8463 17.4138 11.8225 16.5063L13.045 15.28C13.7763 15.9025 14.6725 16.2738 15.625 16.3525L15.6254 18.0813ZM20.1775 16.5063C19.1538 17.4138 17.8304 17.995 16.3754 18.0813V16.3525C17.3313 16.2738 18.2275 15.9025 18.955 15.2838C18.955 15.2838 18.9554 15.2838 18.9558 15.2834L20.1783 16.5059C20.1783 16.5059 20.1779 16.5063 20.1775 16.5066V16.5063ZM22.285 12.1713C22.1988 13.6263 21.6175 14.95 20.71 15.9738C20.7096 15.9745 20.7089 15.9749 20.7085 15.9753L19.4841 14.7509C20.1066 14.0196 20.4779 13.1234 20.5529 12.1713C20.5529 12.1709 20.5529 12.1701 20.5529 12.1698H22.2854C22.2854 12.1698 22.2854 12.1709 22.2854 12.1713H22.285ZM20.71 7.61876C21.6171 8.64214 22.1984 9.96551 22.285 11.4198H20.5525C20.4771 10.4639 20.1063 9.56839 19.4875 8.84126C19.4871 8.84051 19.4864 8.84014 19.486 8.83976L20.7085 7.61726C20.7085 7.61726 20.7096 7.61839 20.71 7.61876ZM16.3754 5.51126C17.83 5.59751 19.1538 6.17876 20.1775 7.08626C20.1775 7.08626 20.1779 7.08664 20.1783 7.08701L18.9558 8.30951C18.9558 8.30951 18.9554 8.30914 18.955 8.30876C18.2275 7.69001 17.3316 7.31876 16.3754 7.24376V5.51126ZM16.2663 9.14126L18.655 11.53C18.7263 11.6013 18.7638 11.695 18.7638 11.7963C18.7638 11.8938 18.7263 11.9913 18.655 12.0625L16.2663 14.4513C16.1913 14.5225 16.0975 14.56 16 14.56C15.9025 14.56 15.8088 14.5225 15.7338 14.4513L13.345 12.0625C13.2738 11.9913 13.2363 11.8938 13.2363 11.7963C13.2363 11.695 13.2738 11.6013 13.345 11.53L15.7338 9.14126C15.88 8.99501 16.12 8.99501 16.2663 9.14126ZM11.8225 7.08626C12.8463 6.17876 14.17 5.59751 15.625 5.51126L15.6254 7.24376C14.6733 7.31876 13.7766 7.69001 13.0454 8.31214L11.8221 7.08664L11.8225 7.08626ZM11.2938 7.61876L12.5151 8.84239C11.8934 9.56951 11.5229 10.4646 11.4438 11.4198H9.71501C9.80163 9.96551 10.3825 8.64214 11.2938 7.61876ZM9.71501 12.1698H11.4438C11.4438 12.1698 11.4438 12.1709 11.4438 12.1713C11.5225 13.1238 11.8938 14.02 12.5163 14.7513L11.2938 15.9738C10.3825 14.95 9.80126 13.6263 9.71501 12.1713C9.71501 12.1709 9.71501 12.1701 9.71501 12.1698Z" fill="white"/>
</svg>
