<svg width="32" height="32" viewBox="0 0 32 32" fill="none" xmlns="http://www.w3.org/2000/svg">
<g clip-path="url(#clip0_501_71)">
<path d="M27.0925 15.67C22.5588 13.1912 18.85 9.48248 16.3675 4.94498C16.2362 4.70498 15.8425 4.70498 15.7112 4.94498C14.5262 7.11248 13.06 9.08873 11.3575 10.8325C11.0012 11.2 10.63 11.56 10.2512 11.9012C8.66125 13.36 6.895 14.6275 4.9825 15.67C4.8625 15.7375 4.7875 15.8612 4.7875 16C4.7875 16.1387 4.8625 16.2625 4.9825 16.33C9.52 18.8087 13.2287 22.5175 15.7112 27.055C15.775 27.175 15.9025 27.25 16.0375 27.25C16.1762 27.25 16.3037 27.175 16.3675 27.055C17.4887 25.0075 18.8612 23.125 20.4512 21.4525C21.0137 20.8525 21.61 20.275 22.2325 19.7312C23.7137 18.4262 25.3412 17.2862 27.0925 16.33C27.2125 16.2625 27.2875 16.1387 27.2875 16C27.2875 15.8612 27.2125 15.7375 27.0925 15.67ZM21.6437 19.2512C20.9837 19.8325 20.3537 20.4475 19.7575 21.0925C15.3587 18.7075 12.43 15.2387 10.66 12.5425C11.1025 12.1487 11.53 11.7362 11.9387 11.3087C13.5175 9.68498 14.8937 7.86623 16.0375 5.88998C18.4712 10.0937 21.9475 13.57 26.1475 16C24.535 16.9337 23.0275 18.0212 21.6437 19.2512Z" fill="white"/>
<path d="M17.8938 9.91001C17.7625 9.74876 17.5263 9.72251 17.365 9.85376C17.2038 9.98501 17.1813 10.2213 17.3088 10.3825C19.0488 12.535 21.0813 14.4213 23.3538 16C22.345 16.7013 21.3738 17.4663 20.4663 18.2875C20.4625 18.2913 20.4588 18.295 20.455 18.2988C20.3013 18.4375 20.29 18.6738 20.4288 18.8275C20.5 18.91 20.6013 18.9513 20.7063 18.9513C20.7963 18.9513 20.8863 18.9213 20.9575 18.8575C20.9913 18.8275 21.0213 18.7975 21.055 18.7675C22.0525 17.8788 23.1175 17.0538 24.2275 16.3113C24.3325 16.2438 24.3963 16.1238 24.3963 16C24.3963 15.8763 24.3325 15.7563 24.2275 15.6888C21.8313 14.0913 19.7013 12.145 17.8938 9.91001Z" fill="white"/>
<path d="M16.3506 7.81075C16.2355 7.639 16.003 7.59175 15.8305 7.70688C15.6584 7.822 15.6119 8.05488 15.7266 8.227C15.829 8.38075 15.9333 8.53338 16.0386 8.68525C16.1114 8.79025 16.228 8.8465 16.3469 8.8465C16.4208 8.8465 16.4954 8.82475 16.5603 8.77938C16.7305 8.66125 16.7725 8.42763 16.6544 8.25738C16.5516 8.10925 16.4508 7.96075 16.3506 7.81075Z" fill="white"/>
</g>
<defs>
<clipPath id="clip0_501_71">
<rect width="24" height="24" fill="white" transform="translate(4 4)"/>
</clipPath>
</defs>
</svg>
